<?xml version="1.0" encoding="utf-8"?>
<!-- Generator: Adobe Illustrator 24.0.2, SVG Export Plug-In . SVG Version: 6.00 Build 0)  -->
<svg version="1.1" id="Layer_1" xmlns="http://www.w3.org/2000/svg" xmlns:xlink="http://www.w3.org/1999/xlink" x="0px" y="0px"
	 viewBox="0 0 100 100" style="enable-background:new 0 0 100 100;" xml:space="preserve">
<style type="text/css">
	.Arched_x0020_Green{fill:url(#SVGID_1_);stroke:#FFFFFF;stroke-width:0.25;stroke-miterlimit:1;}
	.st0{fill:url(#SVGID_2_);}
	.st1{fill-rule:evenodd;clip-rule:evenodd;fill:#FFFFFF;}
</style>
<linearGradient id="SVGID_1_" gradientUnits="userSpaceOnUse" x1="-256" y1="446" x2="-255.2929" y2="445.2929">
	<stop  offset="0" style="stop-color:#1EAB4B"/>
	<stop  offset="0.9831" style="stop-color:#19361A"/>
</linearGradient>
<linearGradient id="SVGID_2_" gradientUnits="userSpaceOnUse" x1="4.7886" y1="-37.8537" x2="89.1539" y2="126.083">
	<stop  offset="0" style="stop-color:#FFE900"/>
	<stop  offset="1" style="stop-color:#FF13BD"/>
</linearGradient>
<path class="st0" d="M13.2,100h73.6c7.3,0,13.2-5.9,13.2-13.2V13.2C100,5.9,94.1,0,86.8,0H13.2C5.9,0,0,5.9,0,13.2v73.6
	C0,94.1,5.9,100,13.2,100z"/>
<g>
	<path class="st1" d="M13.1,40.9L5.7,59.2h4.8l1.4-3.6h8.2l1.5,3.6h4.9l-8.1-18.3H13.1z M13.1,52.4l2.7-7.1l3,7.1H13.1z"/>
	<polygon class="st1" points="38.5,47.7 32.6,40.9 28.6,40.9 28.6,59.2 33.2,59.2 33.2,47.8 38.1,53.5 38.8,53.5 43.8,47.8 
		43.8,59.2 48.3,59.2 48.3,40.9 44.4,40.9 	"/>
	<path class="st1" d="M59.9,40.9h-8.1v18.3h7.6c7.3,0,10.6-3.9,10.6-9.1C70,45.1,66.6,40.9,59.9,40.9z M59.4,55.9h-3V44.3h2.9
		c4.3,0,6,2.7,6,5.8C65.3,52.8,63.9,55.9,59.4,55.9z"/>
	<polygon class="st1" points="73.4,39.5 79.1,45.2 88.4,45.2 88.4,54.5 94.3,60.4 94.3,39.5 	"/>
	<polygon class="st1" points="79.1,46.3 73.2,52.2 73.2,60.5 81.7,60.5 87.6,54.7 79.1,54.7 	"/>
</g>
</svg>
