<?xml version="1.0" encoding="utf-8"?>
<!-- Generator: Adobe Illustrator 24.0.2, SVG Export Plug-In . SVG Version: 6.00 Build 0)  -->
<svg version="1.1" id="Layer_1" xmlns="http://www.w3.org/2000/svg" xmlns:xlink="http://www.w3.org/1999/xlink" x="0px" y="0px"
	 viewBox="0 0 100 100" style="enable-background:new 0 0 100 100;" xml:space="preserve">
<style type="text/css">
	.Arched_x0020_Green{fill:url(#SVGID_1_);stroke:#FFFFFF;stroke-width:0.25;stroke-miterlimit:1;}
	.st0{fill:url(#SVGID_2_);}
	.st1{fill:#FFFFFF;}
</style>
<linearGradient id="SVGID_1_" gradientUnits="userSpaceOnUse" x1="-256" y1="446" x2="-255.2929" y2="445.2929">
	<stop  offset="0" style="stop-color:#1EAB4B"/>
	<stop  offset="0.9831" style="stop-color:#19361A"/>
</linearGradient>
<linearGradient id="SVGID_2_" gradientUnits="userSpaceOnUse" x1="4.7886" y1="-37.8537" x2="89.1539" y2="126.083">
	<stop  offset="0" style="stop-color:#FFE900"/>
	<stop  offset="1" style="stop-color:#FF13BD"/>
</linearGradient>
<path class="st0" d="M13.2,100h73.6c7.3,0,13.2-5.9,13.2-13.2V13.2C100,5.9,94.1,0,86.8,0H13.2C5.9,0,0,5.9,0,13.2v73.6
	C0,94.1,5.9,100,13.2,100z"/>
<g>
	<path class="st1" d="M47.6,74.6c-18.8,1.7-38.5-1-41.2-15.7c-1.3-7.3,2-15,6.4-19.7v-2.6C4.8,43.5,0.5,52.3,3,62.7
		C6.2,75.9,23,83.5,48.7,81c10.2-1,23.5-4.3,32.8-9.4v-7.2C73.1,69.4,59.2,73.5,47.6,74.6z M97.3,36.4c-4.5-21.8-46.9-23.2-74.2-6.6
		v1.8c27.3-14,66-13.9,69.5,6.2c1.2,6.7-2.6,13.6-9.3,17.6v5.2C91.4,57.7,99.7,48.1,97.3,36.4z"/>
	<path class="st1" d="M80,33.2h-4.9v22c0,2.6,1.2,4.8,4.9,5.2V33.2z"/>
	<path class="st1" d="M21.2,41.3h-5l0,14.4c0,2.6,1.3,4.8,5,5.2V41.3z"/>
	<rect x="16.2" y="33.9" class="st1" width="4.9" height="4.7"/>
	<path class="st1" d="M50.8,60.6c-4,0-5.7-2.8-5.7-5.5V36H50v5.3h3.7v4H50v9.6c0,1.1,0.5,1.7,1.7,1.7h2v4.1H50.8"/>
	<path class="st1" d="M59.8,52.5c0,2.5,1.6,4.3,4.3,4.3c2.2,0,3.2-0.6,4.5-1.8l3,2.9c-1.9,1.9-4,3.1-7.6,3.1c-4.7,0-9.2-2.6-9.2-10
		c0-6.4,3.9-10,9.1-10c5.2,0,8.2,4.2,8.2,9.8v1.8H59.8 M63.8,45c-1.7,0-3,0.9-3.5,2c-0.3,0.7-0.4,1.2-0.5,2.1h7.6
		C67.2,47,66.3,45,63.8,45z"/>
	<path class="st1" d="M34.5,45.2c1.4,0,2,0.7,2,1.9v13.5h4.9V47.1c0-2.7-1.5-5.8-5.8-5.8l-10.1,0v19.4h4.9V45.2H34.5z"/>
	<g>
		<path class="st1" d="M85.3,37.2c-1.1,0-2-0.9-2-2c0-1.1,0.9-2,2-2c1.1,0,2,0.9,2,2C87.3,36.3,86.4,37.2,85.3,37.2z M85.3,33.6
			c-0.9,0-1.6,0.7-1.6,1.6c0,0.9,0.7,1.6,1.6,1.6c0.9,0,1.6-0.7,1.6-1.6C87,34.3,86.2,33.6,85.3,33.6z M86.2,36.4h-0.4
			c0,0-0.1,0-0.1,0l-0.5-0.8c0,0-0.1,0-0.1,0c0,0-0.1,0-0.1,0c0,0-0.1,0-0.1,0v0.8c0,0,0,0.1-0.1,0.1h-0.3c0,0-0.1,0-0.1-0.1v-2.1
			c0-0.1,0-0.2,0.1-0.2c0.1,0,0.4,0,0.6,0c0.6,0,1,0.2,1,0.7v0c0,0.4-0.2,0.5-0.4,0.6l0.5,0.9C86.3,36.3,86.3,36.3,86.2,36.4
			C86.3,36.3,86.3,36.4,86.2,36.4z M85.7,34.7c0-0.2-0.1-0.3-0.5-0.3c0,0-0.1,0-0.2,0c0,0-0.1,0-0.1,0v0.7c0,0,0.3,0,0.3,0
			C85.6,35.1,85.7,35,85.7,34.7L85.7,34.7z"/>
	</g>
</g>
</svg>
