<?xml version="1.0" encoding="utf-8"?>
<!-- Generator: Adobe Illustrator 24.0.2, SVG Export Plug-In . SVG Version: 6.00 Build 0)  -->
<svg version="1.1" xmlns="http://www.w3.org/2000/svg" xmlns:xlink="http://www.w3.org/1999/xlink" x="0px" y="0px"
	 viewBox="0 0 643.5 184.3" style="enable-background:new 0 0 643.5 184.3;" xml:space="preserve">
<style type="text/css">
	.st0{fill:url(#SVGID_1_);}
	.st1{fill:url(#SVGID_2_);}
	.st2{fill:url(#SVGID_3_);}
	.st3{fill:url(#SVGID_4_);}
	.st4{fill:url(#SVGID_5_);}
	.st5{fill:url(#SVGID_6_);}
	.st6{fill:#FFFFFF;}
	.st7{fill:#458EFE;}
</style>
<g id="BACKGROUND">
</g>
<g id="OBJECTS">
	<g>
		<g>
			<g>
				<g>
					<linearGradient id="SVGID_1_" gradientUnits="userSpaceOnUse" x1="103.6428" y1="154.1954" x2="103.6428" y2="178.4158">
						<stop  offset="0" style="stop-color:#C4D6FF"/>
						<stop  offset="1" style="stop-color:#FFFFFF"/>
					</linearGradient>
					<polygon class="st0" points="137.3,184.6 70,184.6 82.4,147.7 93.4,151.4 86.1,173 121.2,173 113.9,151.4 124.9,147.7 					"/>
				</g>
				<linearGradient id="SVGID_2_" gradientUnits="userSpaceOnUse" x1="0" y1="43.7799" x2="214.6897" y2="43.7799">
					<stop  offset="0" style="stop-color:#F7A000"/>
					<stop  offset="1" style="stop-color:#FFE115"/>
				</linearGradient>
				<path class="st1" d="M201.5,0c-5.2,0-9.7,3-11.8,7.4h-50.7L70.3,76H0v11.6h75.1L143.7,19h45.9c2.1,4.4,6.6,7.4,11.8,7.4
					c7.3,0,13.2-5.9,13.2-13.2C214.7,5.9,208.8,0,201.5,0z"/>
				<g>
					<linearGradient id="SVGID_3_" gradientUnits="userSpaceOnUse" x1="161.7552" y1="26.3967" x2="161.7552" y2="161.3915">
						<stop  offset="0" style="stop-color:#DC003E"/>
						<stop  offset="1" style="stop-color:#FF6D98"/>
					</linearGradient>
					<path class="st2" d="M201.5,63.4c2,0,4,0.3,5.8,0.9V37.5l-6.5,0.8c-24.2,2.9-48.5,4.7-72.7,5.4l-11.9,11.9
						c26.4-0.4,53-2.1,79.5-5v13.8C197.5,63.7,199.5,63.4,201.5,63.4z"/>
					<linearGradient id="SVGID_4_" gradientUnits="userSpaceOnUse" x1="103.6427" y1="26.397" x2="103.6427" y2="161.3911">
						<stop  offset="0" style="stop-color:#C4D6FF"/>
						<stop  offset="1" style="stop-color:#FFFFFF"/>
					</linearGradient>
					<path class="st3" d="M201.5,102.7c-2,0-3.9-0.3-5.8-0.9v35.9c-61.1,8-123,8-184.1,0v-20.1H0v30.2l5,0.7
						c32.7,4.5,65.7,6.8,98.6,6.8s65.9-2.3,98.6-6.8l5-0.7v-46C205.5,102.4,203.5,102.7,201.5,102.7z"/>
					<linearGradient id="SVGID_5_" gradientUnits="userSpaceOnUse" x1="46.5881" y1="26.3967" x2="46.5881" y2="161.3915">
						<stop  offset="0" style="stop-color:#DC003E"/>
						<stop  offset="1" style="stop-color:#FF6D98"/>
					</linearGradient>
					<path class="st4" d="M11.6,69.5v-19c23.2,2.6,46.7,4.2,70.2,4.8L93.2,44c-29.1-0.4-58-2.3-86.7-5.7L0,37.5v32H11.6z"/>
				</g>
				<linearGradient id="SVGID_6_" gradientUnits="userSpaceOnUse" x1="0" y1="90.5107" x2="214.6897" y2="90.5107">
					<stop  offset="0" style="stop-color:#0900FB"/>
					<stop  offset="1" style="stop-color:#00C3FF"/>
				</linearGradient>
				<path class="st5" d="M201.5,69.9c-5.2,0-9.7,3-11.8,7.4h-47.3L120,99.6H0v11.6h124.8l22.3-22.3h42.5c2.1,4.4,6.6,7.4,11.8,7.4
					c7.3,0,13.2-5.9,13.2-13.2C214.7,75.8,208.8,69.9,201.5,69.9z"/>
			</g>
		</g>
		<g>
			<g>
				<path class="st6" d="M329.5,77.4l-0.1-40.1l-19.7,33h-7l-19.6-32.2v39.2h-14.5V10.5h12.8l25,41.5l24.6-41.5h12.7l0.2,66.8H329.5
					z"/>
				<path class="st6" d="M409.8,26l-23.2,54.5c-2.4,5.9-5.3,10.1-8.7,12.5c-3.5,2.4-7.7,3.6-12.5,3.6c-2.7,0-5.3-0.4-7.9-1.2
					c-2.6-0.8-4.7-2-6.4-3.4l5.4-10.6c1.1,1,2.5,1.8,4,2.4c1.5,0.6,3,0.9,4.4,0.9c2,0,3.7-0.5,5-1.5c1.3-1,2.4-2.6,3.4-4.9l0.2-0.5
					L351.2,26h15.4l14.4,34.8L395.4,26H409.8z"/>
				<path class="st6" d="M478.2,10.5v66.8h-12.7l-33.3-40.6v40.6h-15.3V10.5h12.8l33.2,40.6V10.5H478.2z"/>
				<path class="st6" d="M543,55.9h-38.8c0.7,3.2,2.4,5.7,5,7.5c2.6,1.8,5.8,2.8,9.7,2.8c2.7,0,5-0.4,7.1-1.2c2.1-0.8,4-2,5.8-3.8
					l7.9,8.6c-4.8,5.5-11.9,8.3-21.2,8.3c-5.8,0-10.9-1.1-15.4-3.4c-4.5-2.3-7.9-5.4-10.3-9.4c-2.4-4-3.6-8.6-3.6-13.6
					c0-5,1.2-9.6,3.6-13.6c2.4-4,5.7-7.2,9.8-9.5c4.2-2.3,8.8-3.4,14-3.4c5,0,9.6,1.1,13.6,3.2c4.1,2.2,7.3,5.3,9.6,9.3
					c2.3,4,3.5,8.7,3.5,14.1C543.3,52.1,543.2,53.4,543,55.9z M508.2,39.4c-2.3,1.9-3.7,4.5-4.2,7.8h25.3c-0.5-3.2-1.9-5.8-4.2-7.8
					c-2.3-1.9-5.1-2.9-8.4-2.9C513.3,36.5,510.5,37.5,508.2,39.4z"/>
				<path class="st6" d="M584.4,77.4l-11.3-15.8l-11.6,15.8h-16.2l19.8-25.9L546,26h16.7l10.9,15l11.2-15h15.8l-19.1,25.1l19.9,26.2
					H584.4z"/>
				<path class="st6" d="M641.7,74.9c-1.5,1.1-3.3,1.9-5.4,2.4c-2.1,0.5-4.4,0.8-6.7,0.8c-6.1,0-10.8-1.6-14.2-4.7s-5-7.7-5-13.7
					V38.6h-7.9V27.1h7.9V14.6h14.9v12.5h12.8v11.5h-12.8v20.9c0,2.2,0.6,3.8,1.7,5c1.1,1.2,2.7,1.8,4.7,1.8c2.4,0,4.4-0.6,6-1.9
					L641.7,74.9z"/>
				<path class="st7" d="M323.3,184.3l-0.1-36l-17.7,29.7h-6.3L281.7,149v35.3h-13v-60h11.5l22.5,37.3l22.1-37.3h11.4l0.2,60H323.3z
					"/>
				<path class="st7" d="M384.7,142.5c3.8,3.4,5.7,8.5,5.7,15.4v26.3H378v-5.7c-2.5,4.3-7.2,6.4-14.1,6.4c-3.5,0-6.6-0.6-9.2-1.8
					c-2.6-1.2-4.6-2.9-6-5c-1.4-2.1-2.1-4.5-2.1-7.2c0-4.3,1.6-7.7,4.8-10.1c3.2-2.5,8.2-3.7,15-3.7h10.6c0-2.9-0.9-5.2-2.7-6.7
					c-1.8-1.6-4.4-2.4-8-2.4c-2.5,0-4.9,0.4-7.2,1.2c-2.4,0.8-4.4,1.8-6,3.1l-4.8-9.4c2.5-1.8,5.5-3.1,9-4.1c3.5-1,7.1-1.5,10.8-1.5
					C375.4,137.4,380.9,139.1,384.7,142.5z M373.3,174.4c1.8-1.1,3-2.6,3.8-4.7V165h-9.2c-5.5,0-8.2,1.8-8.2,5.4
					c0,1.7,0.7,3.1,2,4.1c1.3,1,3.2,1.5,5.5,1.5C369.5,176,371.6,175.4,373.3,174.4z"/>
				<path class="st7" d="M412.1,181.9c-3.9-2-7-4.8-9.2-8.4c-2.2-3.6-3.3-7.7-3.3-12.3c0-4.6,1.1-8.7,3.3-12.3
					c2.2-3.6,5.3-6.4,9.2-8.5c3.9-2,8.3-3,13.3-3c4.9,0,9.1,1,12.7,3c3.6,2,6.3,4.9,7.9,8.7l-10.4,5.6c-2.4-4.2-5.9-6.3-10.4-6.3
					c-3.5,0-6.4,1.1-8.7,3.4c-2.3,2.3-3.4,5.4-3.4,9.4c0,3.9,1.1,7.1,3.4,9.3c2.3,2.3,5.2,3.4,8.7,3.4c4.6,0,8-2.1,10.4-6.4
					l10.4,5.7c-1.7,3.7-4.3,6.5-7.9,8.6c-3.6,2.1-7.9,3.1-12.7,3.1C420.5,185,416.1,183.9,412.1,181.9z"/>
				<path class="st7" d="M495.3,142.6c3.5,3.4,5.3,8.5,5.3,15.3v26.4h-13.4v-24.4c0-3.7-0.8-6.4-2.4-8.2c-1.6-1.8-3.9-2.7-6.9-2.7
					c-3.4,0-6.1,1-8.1,3.1c-2,2.1-3,5.2-3,9.3v22.8h-13.4v-63.6h13.4v22.3c1.8-1.8,3.9-3.1,6.4-4.1c2.5-0.9,5.3-1.4,8.2-1.4
					C487.2,137.4,491.8,139.2,495.3,142.6z"/>
				<path class="st7" d="M513.4,129.6c-1.5-1.4-2.3-3.2-2.3-5.3c0-2.1,0.8-3.9,2.3-5.3c1.5-1.4,3.5-2.1,6-2.1c2.5,0,4.5,0.7,6,2.1
					c1.5,1.4,2.3,3.1,2.3,5.1c0,2.2-0.8,4.1-2.3,5.5c-1.5,1.5-3.5,2.2-6,2.2C516.9,131.7,514.9,131,513.4,129.6z M512.7,138.1h13.4
					v46.1h-13.4V138.1z"/>
				<path class="st7" d="M580.4,142.6c3.5,3.4,5.3,8.5,5.3,15.3v26.4h-13.4v-24.4c0-3.7-0.8-6.4-2.4-8.2c-1.6-1.8-3.9-2.7-6.9-2.7
					c-3.4,0-6.1,1-8.1,3.1c-2,2.1-3,5.2-3,9.3v22.8h-13.4v-46.1h12.8v5.4c1.8-1.9,4-3.4,6.6-4.5c2.6-1.1,5.5-1.6,8.7-1.6
					C572.3,137.4,576.9,139.2,580.4,142.6z"/>
				<path class="st7" d="M643.3,165h-34.9c0.6,2.9,2.1,5.1,4.5,6.8c2.3,1.7,5.3,2.5,8.7,2.5c2.4,0,4.5-0.4,6.4-1.1
					c1.9-0.7,3.6-1.8,5.2-3.4l7.1,7.7c-4.3,5-10.7,7.5-19,7.5c-5.2,0-9.8-1-13.8-3c-4-2-7.1-4.8-9.3-8.4c-2.2-3.6-3.3-7.7-3.3-12.3
					c0-4.5,1.1-8.6,3.2-12.2c2.1-3.6,5.1-6.5,8.8-8.5c3.7-2,7.9-3,12.6-3c4.5,0,8.6,1,12.3,2.9c3.7,1.9,6.5,4.7,8.6,8.4
					c2.1,3.6,3.1,7.8,3.1,12.7C643.5,161.5,643.4,162.7,643.3,165z M612,150.1c-2.1,1.7-3.3,4.1-3.8,7h22.7c-0.5-2.9-1.7-5.2-3.8-7
					c-2.1-1.7-4.6-2.6-7.5-2.6C616.5,147.6,614,148.4,612,150.1z"/>
			</g>
		</g>
	</g>
</g>
</svg>
